<svg xmlns="http://www.w3.org/2000/svg" width="8.443" height="5.967" viewBox="0 0 8.443 5.967">
  <g id="Group_440" data-name="Group 440" transform="translate(0 0.062)">
    <g id="Group_438" data-name="Group 438" transform="translate(0 0.544)">
      <g id="Group_437" data-name="Group 437">
        <path id="Path_8237" data-name="Path 8237" d="M165.505,8.514h-1.034a.627.627,0,0,1-.236.507.6.6,0,0,1-.393.133c-.334-.007-.542-.227-.606-.642a.708.708,0,0,1-.477-.231.7.7,0,0,1,.225-1.1c.051-.023.061-.044.048-.1q-.347-1.422-.687-2.844c-.012-.048-.029-.066-.08-.065-.121,0-.243,0-.364,0a.189.189,0,1,1,0-.375c.133,0,.265,0,.4,0a.393.393,0,0,1,.394.3c.066.259.128.518.188.778.013.057.035.073.093.073h4.216a.188.188,0,0,1,.2.269q-.168.548-.337,1.093c-.067.218-.133.437-.2.655a.7.7,0,0,1-.71.519H163.3a.325.325,0,0,0-.076.645.29.29,0,0,0,.251-.066.6.6,0,0,1,.8.028.167.167,0,0,0,.1.041c.4,0,.808,0,1.212,0a.149.149,0,0,0,.113-.043.612.612,0,0,1,1.016.577.611.611,0,0,1-1.2-.047C165.513,8.589,165.51,8.553,165.505,8.514Zm.406-2.687h.7c.062,0,.143.021.183-.01s.048-.115.067-.176c.032-.1.063-.208.1-.314h-1.049ZM164,5.328h-1.01l.119.494H164Zm1.048.494h.668V5.327h-.668Zm-.191,0v-.5h-.666v.5Zm-.668,1.283h.668V6.612h-.668Zm.861-.495v.495h.667V6.611ZM164,6.015h-.843l.1.4H164Zm0,.6h-.7l.119.493H164Zm1.91-.6v.4h.711l.125-.4Zm0,1.093c.1,0,.2,0,.29,0a.282.282,0,0,0,.223-.121,1.351,1.351,0,0,0,.139-.373h-.652Zm-1.054-.69v-.4h-.666v.4Zm.195-.4v.4h.665v-.4Zm-1.2,2.278a.246.246,0,0,0-.249.246.249.249,0,1,0,.249-.246Zm2.268,0a.25.25,0,0,0-.251.247.255.255,0,0,0,.254.252.249.249,0,0,0,.245-.252A.246.246,0,0,0,166.124,8.292Z" transform="translate(-160.7 -3.794)" fill="#42a5f5"/>
        <path id="Path_8238" data-name="Path 8238" d="M161.825,5.989h.532c.079,0,.128.042.129.106a.111.111,0,0,1-.126.109h-1.077a.111.111,0,0,1-.126-.11c0-.064.049-.1.13-.105Z" transform="translate(-160.7 -3.794)" fill="#42a5f5"/>
        <path id="Path_8239" data-name="Path 8239" d="M161.243,5.64h-.41c-.083,0-.134-.042-.133-.109s.051-.106.135-.107h.82c.088,0,.134.037.135.106s-.045.109-.137.11Z" transform="translate(-160.7 -3.794)" fill="#42a5f5"/>
        <path id="Path_8240" data-name="Path 8240" d="M161.766,5.075h-.391c-.076,0-.122-.04-.124-.1a.11.11,0,0,1,.124-.111q.387,0,.774,0a.11.11,0,0,1,.124.111c0,.063-.048.1-.124.1Z" transform="translate(-160.7 -3.794)" fill="#42a5f5"/>
      </g>
    </g>
    <g id="Group_439" data-name="Group 439" transform="translate(5.55)">
      <circle id="Ellipse_10" data-name="Ellipse 10" cx="1.35" cy="1.35" r="1.35" fill="#c61212" stroke="#fff" stroke-miterlimit="10" stroke-width="0.1"/>
      <text id="_2" data-name="2" transform="translate(0.893 1.938)" fill="#fff" font-size="1.894" font-family="Helvetica"><tspan x="0" y="0">2</tspan></text>
    </g>
  </g>
</svg>
