<svg id="Group_425" data-name="Group 425" xmlns="http://www.w3.org/2000/svg" width="100" height="30" viewBox="0 0 15.36 6.384">
  <g id="Group_424" data-name="Group 424">
    <g id="Group_423" data-name="Group 423">
      <g id="Group_422" data-name="Group 422">
        <g id="Group_404" data-name="Group 404" transform="translate(3.464 2.197)">
          <g id="Group_398" data-name="Group 398" transform="translate(6.146 0.656)">
            <path id="Path_8219" data-name="Path 8219" d="M32.56,7.45a1.547,1.547,0,0,1,.249-1.057,1.593,1.593,0,0,1,.863-.628.139.139,0,0,1-.037.092c-.077.12-.157.239-.235.36-.128.2-.254.4-.383.595s-.256.387-.385.579c-.016.024-.037.044-.055.066Z" transform="translate(-32.551 -5.765)" fill="#faaf3b"/>
          </g>
          <g id="Group_399" data-name="Group 399" transform="translate(6.268 0.607)">
            <path id="Path_8220" data-name="Path 8220" d="M34.16,5.717c-.019.034-.029.057-.043.077q-.143.22-.287.439l-.331.509c-.12.185-.24.371-.361.556s-.224.346-.337.519a.21.21,0,0,1-.073.083.159.159,0,0,1-.034-.2q.4-.609.793-1.218c.15-.232.3-.462.451-.694a.133.133,0,0,1,.131-.072C34.094,5.719,34.119,5.717,34.16,5.717Z" transform="translate(-32.672 -5.716)" fill="#faaf3b"/>
          </g>
          <g id="Group_400" data-name="Group 400" transform="translate(1.011 0.659)">
            <path id="Path_8221" data-name="Path 8221" d="M28.51,5.768a.1.1,0,0,1-.019.1c-.04.065-.081.128-.123.192q-.444.682-.89,1.365c-.009.014-.02.025-.031.039a1.477,1.477,0,0,1,.109-.863A1.59,1.59,0,0,1,28.51,5.768Z" transform="translate(-27.416 -5.768)" fill="#faaf3b"/>
          </g>
          <g id="Group_401" data-name="Group 401" transform="translate(1.124 0.602)">
            <path id="Path_8222" data-name="Path 8222" d="M27.6,7.91a.36.36,0,0,1-.067-.142c-.005-.012.007-.032.015-.045.144-.223.289-.445.434-.668L28.34,6.5c.154-.239.309-.478.462-.717a.158.158,0,0,1,.135-.071c.045,0,.063.02.048.063a.191.191,0,0,1-.023.045q-.255.395-.511.79c-.147.226-.3.451-.444.677-.122.186-.242.374-.364.562C27.63,7.868,27.614,7.887,27.6,7.91Z" transform="translate(-27.529 -5.711)" fill="#faaf3b"/>
          </g>
          <g id="Group_403" data-name="Group 403">
            <g id="Group_402" data-name="Group 402">
              <path id="Path_8223" data-name="Path 8223" d="M36.549,6.456a.12.12,0,0,0-.115-.132,1.092,1.092,0,0,1-.111-.034.726.726,0,0,1-.335-.213,3.293,3.293,0,0,0-.738-.6,2.282,2.282,0,0,0-1.437-.354,2.068,2.068,0,0,0-.694.2,2.938,2.938,0,0,0-.508.339,3.28,3.28,0,0,0-.516.5.521.521,0,0,1-.341.194,2.05,2.05,0,0,1-.525,0,.486.486,0,0,1-.33-.176,1.271,1.271,0,0,0-.114-.118,5.213,5.213,0,0,0-.556-.5,2.115,2.115,0,0,0-1.2-.442,2.145,2.145,0,0,0-.783.122,2.73,2.73,0,0,0-.422.183,3.28,3.28,0,0,0-.784.605,1.008,1.008,0,0,1-.517.31c-.085.019-.1.039-.1.126s-.009.184-.012.276a.637.637,0,0,0,.007.087.119.119,0,0,0,.089.111c.027.008.051.021.078.031a.132.132,0,0,1,.084.088c.016.05.034.1.048.15.056.2.1.41.168.612a2.085,2.085,0,0,0,.586.916,2.125,2.125,0,0,0,1.046.52A1.833,1.833,0,0,0,29,9.293a2.426,2.426,0,0,0,.761-.172,2.073,2.073,0,0,0,1-.837,3.361,3.361,0,0,0,.374-.957c.032-.122.068-.242.105-.362a.218.218,0,0,1,.073-.116.278.278,0,0,1,.427.095.944.944,0,0,1,.032.089q.06.206.117.411a3.281,3.281,0,0,0,.255.689,2.041,2.041,0,0,0,.67.765,2.131,2.131,0,0,0,1.578.362,2.2,2.2,0,0,0,.951-.39,2.056,2.056,0,0,0,.78-1.136c.053-.187.1-.375.148-.565a.285.285,0,0,1,.214-.247c.055-.015.071-.056.078-.109A2.239,2.239,0,0,0,36.549,6.456Zm-9.825.351h-.082a.059.059,0,1,1,0-.117h.082a.059.059,0,1,1,0,.117Zm0-.224h-.082a.059.059,0,1,1,0-.117h.082a.059.059,0,1,1,0,.117ZM28.943,9a1.8,1.8,0,1,1,1.818-1.791A1.8,1.8,0,0,1,28.943,9Zm5.114,0A1.8,1.8,0,0,1,32.2,7.213,1.845,1.845,0,1,1,34.057,9Zm2.261-2.191h-.082a.059.059,0,1,1,0-.117h.082a.059.059,0,1,1,0,.117Zm0-.224h-.082a.059.059,0,1,1,0-.117h.082a.059.059,0,1,1,0,.117Z" transform="translate(-26.405 -5.109)" fill="#4d4e4e"/>
            </g>
          </g>
        </g>
        <g id="Group_405" data-name="Group 405" transform="translate(0 0.391)">
          <rect id="Rectangle_240" data-name="Rectangle 240" width="0.827" height="5.992" rx="0.145" fill="#56a0d7"/>
          <path id="Path_8224" data-name="Path 8224" d="M25.546,4.948h.613a.118.118,0,0,1,.107.047c.02.032.013.073-.022.124l-1.2,1.909v.034l1.3,2.063a.109.109,0,0,1,.013.119.13.13,0,0,1-.124.052h-.554a.321.321,0,0,1-.289-.145l-1.2-1.969a.235.235,0,0,1,0-.23L25.3,5.085A.263.263,0,0,1,25.546,4.948Z" transform="translate(-22.94 -3.303)" fill="#56a0d7"/>
        </g>
        <g id="Group_406" data-name="Group 406" transform="translate(14.533 0.391)">
          <path id="Path_8225" data-name="Path 8225" d="M38.155,9.3h-.537a.128.128,0,0,1-.145-.145v-5.7a.128.128,0,0,1,.145-.145h.537a.128.128,0,0,1,.145.145v5.7A.128.128,0,0,1,38.155,9.3Z" transform="translate(-37.473 -3.303)" fill="#56a0d7"/>
        </g>
        <g id="Group_421" data-name="Group 421" transform="translate(4.147)">
          <g id="Group_408" data-name="Group 408" transform="translate(0 0.471)">
            <g id="Group_407" data-name="Group 407">
              <path id="Path_8226" data-name="Path 8226" d="M27.141,4.281a.05.05,0,0,1-.039-.015.051.051,0,0,1-.015-.037V3.437A.051.051,0,0,1,27.1,3.4a.055.055,0,0,1,.04-.015.049.049,0,0,1,.038.015.05.05,0,0,1,.014.037v.792a.055.055,0,0,1-.014.037A.053.053,0,0,1,27.141,4.281Zm.575-.9a.044.044,0,0,1,.034.017.051.051,0,0,1,.014.035.048.048,0,0,1-.015.034L27.183,4l-.009-.119.5-.481A.054.054,0,0,1,27.716,3.383Zm0,.9a.047.047,0,0,1-.038-.019l-.342-.433.08-.081.346.444a.062.062,0,0,1,.012.035.047.047,0,0,1-.019.04A.069.069,0,0,1,27.72,4.284Z" transform="translate(-27.087 -3.383)" fill="#4d4e4e"/>
            </g>
          </g>
          <g id="Group_410" data-name="Group 410" transform="translate(1.496 0.249)">
            <g id="Group_409" data-name="Group 409">
              <path id="Path_8227" data-name="Path 8227" d="M28.69,4.229a.049.049,0,0,1-.016.037.051.051,0,0,1-.037.015.05.05,0,0,1-.039-.015.051.051,0,0,1-.015-.037V3.437A.051.051,0,0,1,28.6,3.4a.055.055,0,0,1,.04-.015.051.051,0,0,1,.052.052Zm-.047-.9a.037.037,0,0,1-.027-.009.031.031,0,0,1-.009-.022l0-.014.012-.013.112-.092a.11.11,0,0,1,.021-.014.066.066,0,0,1,.025,0,.052.052,0,0,1,.034.013.043.043,0,0,1,.015.034.054.054,0,0,1-.008.028.058.058,0,0,1-.025.021l-.126.064-.014.006Z" transform="translate(-28.583 -3.161)" fill="#4d4e4e"/>
            </g>
          </g>
          <g id="Group_412" data-name="Group 412" transform="translate(2.468 0.473)">
            <g id="Group_411" data-name="Group 411">
              <path id="Path_8228" data-name="Path 8228" d="M30.22,3.385a.041.041,0,0,1,.034.014.047.047,0,0,1,.013.034v.794a.054.054,0,0,1-.015.04.058.058,0,0,1-.039.014.06.06,0,0,1-.022,0,.043.043,0,0,1-.017-.012l-.549-.725.026-.014v.708a.046.046,0,0,1-.014.034.045.045,0,0,1-.035.013.044.044,0,0,1-.034-.013.045.045,0,0,1-.013-.034v-.8A.049.049,0,0,1,29.57,3.4a.05.05,0,0,1,.036-.014.067.067,0,0,1,.024,0,.034.034,0,0,1,.018.015l.54.713-.016.021v-.7a.048.048,0,0,1,.014-.034A.042.042,0,0,1,30.22,3.385Z" transform="translate(-29.555 -3.385)" fill="#4d4e4e"/>
            </g>
          </g>
          <g id="Group_414" data-name="Group 414" transform="translate(4.043 0.473)">
            <g id="Group_413" data-name="Group 413">
              <path id="Path_8229" data-name="Path 8229" d="M31.185,3.385a.054.054,0,0,1,.038.015.051.051,0,0,1,.015.037v.792a.049.049,0,0,1-.016.037.054.054,0,0,1-.038.015.053.053,0,0,1-.039-.015.051.051,0,0,1-.015-.037V3.437a.049.049,0,0,1,.016-.037A.053.053,0,0,1,31.185,3.385Zm0,.39h.6v.1h-.6Zm.595-.39a.053.053,0,0,1,.039.015.055.055,0,0,1,.014.037v.792a.051.051,0,0,1-.015.037.055.055,0,0,1-.04.015.051.051,0,0,1-.052-.052V3.437a.049.049,0,0,1,.016-.037A.052.052,0,0,1,31.775,3.385Z" transform="translate(-31.13 -3.385)" fill="#4d4e4e"/>
            </g>
          </g>
          <g id="Group_416" data-name="Group 416" transform="translate(5.604 0.471)">
            <g id="Group_415" data-name="Group 415">
              <path id="Path_8230" data-name="Path 8230" d="M32.745,3.383a.063.063,0,0,1,.025.007.046.046,0,0,1,.021.018l.34.512h-.046l.343-.511a.053.053,0,0,1,.043-.025.065.065,0,0,1,.037.016.047.047,0,0,1,.016.037v.793a.051.051,0,0,1-.015.037.054.054,0,0,1-.039.015.053.053,0,0,1-.039-.015.051.051,0,0,1-.015-.037V3.535l.032,0-.3.459a.058.058,0,0,1-.018.017.042.042,0,0,1-.024.005.037.037,0,0,1-.023-.005A.042.042,0,0,1,33.063,4l-.3-.458.027-.035v.723a.05.05,0,0,1-.014.037.046.046,0,0,1-.036.015.045.045,0,0,1-.035-.015.051.051,0,0,1-.015-.037V3.436a.054.054,0,0,1,.016-.037A.053.053,0,0,1,32.745,3.383Z" transform="translate(-32.691 -3.383)" fill="#4d4e4e"/>
            </g>
          </g>
          <g id="Group_418" data-name="Group 418" transform="translate(7.217)">
            <g id="Group_417" data-name="Group 417">
              <path id="Path_8231" data-name="Path 8231" d="M34.7,3.518l-.3.733a.046.046,0,0,1-.017.024.043.043,0,0,1-.027.01.045.045,0,0,1-.036-.013A.054.054,0,0,1,34.3,4.24l0-.019.331-.806a.055.055,0,0,1,.021-.026.047.047,0,0,1,.031-.008.053.053,0,0,1,.03.009.042.042,0,0,1,.018.025l.331.8a.076.076,0,0,1,0,.021.048.048,0,0,1-.015.037.051.051,0,0,1-.034.014.045.045,0,0,1-.03-.01.057.057,0,0,1-.019-.026l-.305-.732Zm-.237.524.043-.1h.38l.02.1ZM34.69,3.3a.2.2,0,0,1-.116-.033.184.184,0,0,1-.069-.092.042.042,0,0,1,0-.037.03.03,0,0,1,.027-.013.041.041,0,0,1,.03.009.11.11,0,0,1,.021.025.137.137,0,0,0,.043.046.114.114,0,0,0,.063.016.109.109,0,0,0,.1-.062.075.075,0,0,1,.021-.025.051.051,0,0,1,.03-.008.032.032,0,0,1,.028.012.04.04,0,0,1,0,.036.175.175,0,0,1-.068.093A.2.2,0,0,1,34.69,3.3Zm0-.215a.033.033,0,0,1-.026-.009.026.026,0,0,1-.009-.022.035.035,0,0,1,0-.014l.012-.012.113-.093a.1.1,0,0,1,.02-.013.055.055,0,0,1,.026-.006.049.049,0,0,1,.033.014.042.042,0,0,1,.015.034.048.048,0,0,1-.008.028.057.057,0,0,1-.025.02l-.125.064-.015.007Z" transform="translate(-34.304 -2.912)" fill="#4d4e4e"/>
            </g>
          </g>
          <g id="Group_420" data-name="Group 420" transform="translate(8.631 0.473)">
            <g id="Group_419" data-name="Group 419">
              <path id="Path_8232" data-name="Path 8232" d="M35.771,3.483a.053.053,0,0,1-.038-.014.046.046,0,0,1-.015-.036.045.045,0,0,1,.015-.035.057.057,0,0,1,.038-.013h.6A.049.049,0,0,1,36.4,3.4a.044.044,0,0,1,.016.036.043.043,0,0,1-.016.035.052.052,0,0,1-.037.013Zm.3.8a.05.05,0,0,1-.039-.015.051.051,0,0,1-.015-.037v-.79h.109v.79a.049.049,0,0,1-.016.037A.053.053,0,0,1,36.068,4.281Z" transform="translate(-35.718 -3.385)" fill="#4d4e4e"/>
            </g>
          </g>
        </g>
      </g>
    </g>
  </g>
</svg>
