<svg xmlns="http://www.w3.org/2000/svg" width="14.399" height="9.378" viewBox="0 0 14.399 9.378">
  <g id="Group_341" data-name="Group 341" transform="translate(-31.569 -525.819)">
    <path id="Path_4145" data-name="Path 4145" d="M45.726,530.434l-.51-.257a.147.147,0,0,1-.069-.076l-.854-2.04a.841.841,0,0,0-.729-.509l-.979-.054a.2.2,0,0,0-.064-.012H35.247a.277.277,0,0,0-.237.29l-.339,5.634h2.946a.957.957,0,0,1,.126-.085,1.138,1.138,0,0,1,.862-.142,1.171,1.171,0,0,1,.447.227h3.49a1.711,1.711,0,0,1,.116-.694,1.15,1.15,0,0,1,.539-.62,1.121,1.121,0,0,1,.763-.111,1.144,1.144,0,0,1,.616.377,1.445,1.445,0,0,1,.327.71,1.587,1.587,0,0,1,.02.338h.731a.229.229,0,0,0,.227-.215l.087-2.314A.477.477,0,0,0,45.726,530.434Zm-1.666-.377-1.386-.118a.024.024,0,0,1-.013-.007l.077-1.672h0l.631.054a.424.424,0,0,1,.333.342L44.087,530C44.094,530.029,44.08,530.059,44.06,530.057Z" fill="#ed3e88"/>
    <g id="Group_339" data-name="Group 339">
      <path id="Path_4146" data-name="Path 4146" d="M42.265,532.659H34.016a.207.207,0,1,1,0-.414h7.853l.259-5.866a.189.189,0,0,0-.045-.146H34.609a.207.207,0,1,1,0-.414H42.09a.408.408,0,0,1,.3.132.6.6,0,0,1,.155.446Z" fill="#ed3e88"/>
    </g>
    <ellipse id="Ellipse_6" data-name="Ellipse 6" cx="1.235" cy="1.33" rx="1.235" ry="1.33" transform="translate(41.919 533.214) rotate(-45)" fill="#ed3e88" stroke="#fff" stroke-miterlimit="10" stroke-width="0.145"/>
    <path id="Path_4147" data-name="Path 4147" d="M41.869,532.245H33.9V526.8h8.2Z" fill="#fff"/>
    <g id="Group_340" data-name="Group 340">
      <path id="Path_4148" data-name="Path 4148" d="M31.81,530.059H36a.241.241,0,0,0,.241-.242h0a.241.241,0,0,0-.241-.241H31.81a.241.241,0,0,0-.241.241h0A.241.241,0,0,0,31.81,530.059Z" fill="#ed3e88"/>
      <rect id="Rectangle_199" data-name="Rectangle 199" width="4.37" height="0.483" rx="0.203" transform="translate(37.454 527.279) rotate(180)" fill="#ed3e88"/>
      <path id="Path_4149" data-name="Path 4149" d="M34.078,528.669h4.107a.241.241,0,0,0,.241-.241h0a.241.241,0,0,0-.241-.242H34.078a.242.242,0,0,0-.242.242h0A.241.241,0,0,0,34.078,528.669Z" fill="#ed3e88"/>
      <path id="Path_4150" data-name="Path 4150" d="M33.326,531.449h4.512a.242.242,0,0,0,.242-.242h0a.241.241,0,0,0-.242-.241H33.326a.241.241,0,0,0-.242.241h0A.242.242,0,0,0,33.326,531.449Z" fill="#ed3e88"/>
    </g>
    <path id="Path_4151" data-name="Path 4151" d="M44.262,533.589a.42.42,0,0,1-.151.151.6.6,0,0,1-.832-.831.411.411,0,0,1,.152-.152A.6.6,0,0,1,44.262,533.589Z" fill="#fff"/>
  </g>
</svg>
