<svg xmlns="http://www.w3.org/2000/svg" width="8.531" height="9.812" viewBox="0 0 8.531 9.812">
  <g id="Group_326" data-name="Group 326" transform="translate(-72.703 -525.323)">
    <path id="Path_4135" data-name="Path 4135" d="M72.733,529.567c-.053-.726-.016-1.453-.03-2.179,0-.118.074-.106.146-.112a6.489,6.489,0,0,0,2.042-.494,5.384,5.384,0,0,0,1.947-1.369c.093-.1.149-.132.258-.007a5.286,5.286,0,0,0,1.726,1.276.338.338,0,0,1,.2.457.334.334,0,0,1-.487.149,6.023,6.023,0,0,1-1.477-.966c-.066-.059-.107-.072-.18-.007a6.57,6.57,0,0,1-3.336,1.548c-.142.023-.18.074-.179.216a14.59,14.59,0,0,0,.105,2.141,5.27,5.27,0,0,0,1.646,3.312,4.058,4.058,0,0,0,1.73.91.794.794,0,0,0,.448-.06,4.347,4.347,0,0,0,2.82-2.772,7.521,7.521,0,0,0,.446-2.57c0-.057,0-.114,0-.171a.338.338,0,1,1,.67,0,8.521,8.521,0,0,1-.442,2.846,5.275,5.275,0,0,1-1.8,2.545,4.731,4.731,0,0,1-1.821.849,1.432,1.432,0,0,1-.8-.112,4.993,4.993,0,0,1-3.142-3.069,7.146,7.146,0,0,1-.486-2.288l.041-.008c0-.2,0-.4,0-.6C72.731,529.21,72.785,529.392,72.733,529.567Z" fill="#ed3e88"/>
    <path id="Path_4136" data-name="Path 4136" d="M74.836,529.672c.1-.04.164.023.236.08.328.262.668.508,1.013.748a.169.169,0,0,0,.247-.012,42.106,42.106,0,0,0,3.944-3.752c.058-.062.116-.124.175-.185.161-.167.3-.194.429-.09s.138.249.009.437c-.3.435-.594.872-.9,1.3a26.567,26.567,0,0,1-3.2,3.838.567.567,0,0,1-.962-.065c-.44-.571-.843-1.167-1.226-1.777a.792.792,0,0,1-.045-.073A.291.291,0,0,1,74.836,529.672Z" fill="#ed3e88"/>
    <path id="Path_4137" data-name="Path 4137" d="M72.733,529.567c.052-.175,0-.357.052-.534,0,.2,0,.4,0,.6l-.041.008Z" fill="#ed3e88"/>
  </g>
</svg>
