<svg xmlns="http://www.w3.org/2000/svg" width="8.929" height="8.929" viewBox="0 0 8.929 8.929">
  <g id="Group_327" data-name="Group 327" transform="translate(-148.904 -526.767)">
    <path id="Path_4138" data-name="Path 4138" d="M151.009,531.131c0-.362,0-.724,0-1.086a.322.322,0,0,1,.195-.321q1-.516,1.987-1.042a.348.348,0,0,1,.355,0q.985.522,1.975,1.034a.337.337,0,0,1,.2.332c-.005.724,0,1.448,0,2.171a.341.341,0,0,1-.178.32q-.99.61-1.975,1.231a.336.336,0,0,1-.4,0q-.99-.624-1.986-1.239a.327.327,0,0,1-.172-.308C151.012,531.864,151.009,531.5,151.009,531.131Zm.807-1.136a.739.739,0,0,0,.062.05c.47.282.94.565,1.413.841a.2.2,0,0,0,.17-.014c.437-.255.87-.517,1.305-.777l.153-.1c-.441-.231-.871-.442-1.285-.68a.476.476,0,0,0-.542,0C152.678,529.557,152.249,529.768,151.816,529.995Zm-.278.457c0,.041-.009.059-.009.076,0,.506,0,1.012,0,1.518a.212.212,0,0,0,.092.147c.454.29.913.574,1.371.858a1.14,1.14,0,0,0,.107.055c0-.565,0-1.112,0-1.659a.142.142,0,0,0-.063-.1C152.545,531.054,152.051,530.759,151.538,530.452Zm3.66.006a.7.7,0,0,0-.07.03c-.475.284-.951.566-1.422.856a.207.207,0,0,0-.079.154c-.007.455,0,.91,0,1.364v.231c.027,0,.038,0,.044,0,.49-.3.98-.607,1.467-.915a.152.152,0,0,0,.061-.11C155.2,531.536,155.2,531.008,155.2,530.458Z" fill="#ed3e88"/>
    <path id="Path_4139" data-name="Path 4139" d="M156.481,533.595c-.1,0-.172.005-.243,0a.258.258,0,0,1-.258-.272.25.25,0,0,1,.256-.257q.4-.013.8,0a.261.261,0,0,1,.267.293c0,.227,0,.454,0,.682,0,.2-.073.31-.219.339s-.251-.048-.323-.22c-.236.21-.464.436-.715.631a4.423,4.423,0,0,1-5.2.122,4.349,4.349,0,0,1-1.936-3.844,5.8,5.8,0,0,1,.14-.919.261.261,0,0,1,.322-.213.27.27,0,0,1,.2.334c-.036.205-.09.409-.108.616a3.907,3.907,0,0,0,4.057,4.269,3.836,3.836,0,0,0,2.881-1.435C156.419,533.688,156.44,533.654,156.481,533.595Z" fill="#ed3e88"/>
    <path id="Path_4140" data-name="Path 4140" d="M150.241,528.883c.106,0,.18-.005.253,0a.261.261,0,0,1,.257.26.256.256,0,0,1-.261.269q-.405.012-.809,0a.249.249,0,0,1-.248-.254q-.011-.4,0-.807a.26.26,0,0,1,.236-.253c.136-.018.234.057.3.23.127-.122.248-.249.38-.364a4.464,4.464,0,0,1,7.43,2.624,4.072,4.072,0,0,1-.087,1.7c-.048.193-.175.291-.334.254a.276.276,0,0,1-.187-.376,3.789,3.789,0,0,0-.045-2.061,3.916,3.916,0,0,0-3.43-2.771,3.856,3.856,0,0,0-3.376,1.438C150.3,528.8,150.284,528.825,150.241,528.883Z" fill="#ed3e88"/>
  </g>
</svg>
