<svg xmlns="http://www.w3.org/2000/svg" width="12.205" height="12.13" viewBox="0 0 12.205 12.13">
  <path id="Path_4153" data-name="Path 4153" d="M120.6,530.331h-.305a3.678,3.678,0,0,0-1.563-1.919v-1.266a.237.237,0,0,0-.238-.238,2,2,0,0,0-.9.214,2.629,2.629,0,0,0,.06-.556,2.58,2.58,0,0,0-5.16,0,2.548,2.548,0,0,0,.477,1.495,3.653,3.653,0,0,0-2.427,2.614,1.158,1.158,0,0,0-.231-.632,1.325,1.325,0,0,0-1.124-.571.239.239,0,0,0,.022.477h.017a.865.865,0,0,1,.7.381.668.668,0,0,1,.106.2.7.7,0,0,0-.187.006.538.538,0,0,0-.524.542.523.523,0,0,0,.484.5h.037a.647.647,0,0,0,.524-.286,1.229,1.229,0,0,1,.072.113c0,.049,0,.1,0,.149a3.68,3.68,0,0,0,1.535,2.985,1.649,1.649,0,0,1,.672,1.341.237.237,0,0,0,.238.238h1.843a.237.237,0,0,0,.238-.238v-.655h1.017v.655a.237.237,0,0,0,.238.238h1.843a.239.239,0,0,0,.238-.24,1.712,1.712,0,0,1,.709-1.367,3.707,3.707,0,0,0,1.288-1.736h.305a.575.575,0,0,0,.574-.574v-1.294A.575.575,0,0,0,120.6,530.331Zm-4.383,4.415h-1.493a.239.239,0,0,0-.239.239v.654H113.1a2.107,2.107,0,0,0-.859-1.49,3.193,3.193,0,0,1,1.068-5.691,2.256,2.256,0,0,0,.243.2,2.121,2.121,0,0,0-.573.314.239.239,0,0,0-.088.159.234.234,0,0,0,.05.175.242.242,0,0,0,.336.039,3.567,3.567,0,0,1,3.474,0,.24.24,0,0,0,.175.05.233.233,0,0,0,.16-.088.239.239,0,0,0-.037-.335,2.059,2.059,0,0,0-.508-.287,2.467,2.467,0,0,0,.426-.37.237.237,0,0,0,.064-.07l.008-.014a2.3,2.3,0,0,0,.148-.192,1.854,1.854,0,0,1,1.062-.633v1.147a.24.24,0,0,0,.122.209,3.224,3.224,0,0,1,1.516,1.878.236.236,0,0,0,.228.17h.478a.1.1,0,0,1,.1.1V532.2a.1.1,0,0,1-.1.1h-.478a.236.236,0,0,0-.228.17,3.221,3.221,0,0,1-1.17,1.657,2.2,2.2,0,0,0-.89,1.515h-1.379v-.654A.238.238,0,0,0,116.214,534.746Zm-.907-7.241v-.617a.388.388,0,0,1,0,.617Zm-.477-1.875v.612a.39.39,0,0,1-.152-.307A.385.385,0,0,1,114.83,525.63Zm1.991,2.1c-.058.069-.111.138-.156.2a2.1,2.1,0,0,1-.762.559,4.617,4.617,0,0,0-.648-.075.239.239,0,0,0,.052-.149v-.241a.868.868,0,0,0,0-1.669v-.734a.388.388,0,0,1,.155.308.238.238,0,1,0,.476,0,.867.867,0,0,0-.631-.835v-.24a.238.238,0,0,0-.477,0v.242a.867.867,0,0,0,0,1.667v.736a.387.387,0,0,1-.154-.309.239.239,0,0,0-.477,0,.867.867,0,0,0,.631.835v.24a.243.243,0,0,0,.048.145,4.913,4.913,0,0,0-.673.066,2.1,2.1,0,1,1,2.616-.75Zm-6.841,3.274a.184.184,0,0,1-.14.093h-.007a.053.053,0,0,1-.037-.045c0-.009.045-.035.12-.046a.182.182,0,0,1,.04,0Z" transform="translate(-108.966 -523.986)" fill="#ed3e88"/>
</svg>
