<svg xmlns="http://www.w3.org/2000/svg" width="8.215" height="4.999" viewBox="0 0 8.215 4.999">
  <g id="Group_251" data-name="Group 251" transform="translate(-72.796 -276.229)">
    <g id="Group_250" data-name="Group 250">
      <g id="Group_225" data-name="Group 225">
        <rect id="Rectangle_127" data-name="Rectangle 127" width="2.331" height="0.523" transform="translate(72.841 279.465) rotate(-0.254)" fill="#fff"/>
        <path id="Path_4106" data-name="Path 4106" d="M72.843,280.032a.044.044,0,0,1-.031-.013.04.04,0,0,1-.013-.031l0-.523a.044.044,0,0,1,.013-.031.043.043,0,0,1,.031-.014l2.331-.01h0a.044.044,0,0,1,.044.044l0,.523a.045.045,0,0,1-.044.045l-2.331.01Zm.042-.523,0,.434,2.242-.01V279.5Z" fill="#ed3e88"/>
      </g>
      <g id="Group_226" data-name="Group 226">
        <rect id="Rectangle_128" data-name="Rectangle 128" width="2.331" height="0.523" transform="translate(78.634 279.454) rotate(-0.254)" fill="#fff"/>
        <path id="Path_4107" data-name="Path 4107" d="M78.636,280.021a.044.044,0,0,1-.044-.044l0-.523a.044.044,0,0,1,.044-.045l2.331-.01a.043.043,0,0,1,.031.013.044.044,0,0,1,.013.031l0,.523a.043.043,0,0,1-.044.044l-2.331.011Zm.042-.523,0,.434,2.243-.01,0-.434Z" fill="#ed3e88"/>
      </g>
      <g id="Group_227" data-name="Group 227">
        <path id="Path_4108" data-name="Path 4108" d="M76.361,279.368c-.759.877-1.55.921-2.385,1.71a2.313,2.313,0,0,1-.4-1.445,1.422,1.422,0,0,1,.835-1.189,2.026,2.026,0,0,1,.619-.111,3.442,3.442,0,0,0,.006-.779l1.387-.016S76.377,279.061,76.361,279.368Z" fill="#ed3e88"/>
        <path id="Path_4109" data-name="Path 4109" d="M73.976,281.123h0a.043.043,0,0,1-.032-.02,2.37,2.37,0,0,1-.408-1.474,1.47,1.47,0,0,1,.863-1.225,1.987,1.987,0,0,1,.61-.113,4.851,4.851,0,0,0-.013-.733.044.044,0,0,1,.011-.033.043.043,0,0,1,.032-.014l1.388-.016a.039.039,0,0,1,.032.013.044.044,0,0,1,.013.032c0,.015-.046,1.527-.062,1.831a.04.04,0,0,1-.011.027,4.106,4.106,0,0,1-1.273.951,4.972,4.972,0,0,0-1.114.763A.048.048,0,0,1,73.976,281.123Zm1.106-3.525a2.412,2.412,0,0,1-.013.76.056.056,0,0,1-.037.019,1.962,1.962,0,0,0-.606.108,1.38,1.38,0,0,0-.807,1.152,2.258,2.258,0,0,0,.366,1.372,5.167,5.167,0,0,1,1.093-.738,4.072,4.072,0,0,0,1.24-.921c.014-.3.051-1.515.059-1.767Zm1.279,1.77Z" fill="#ed3e88"/>
      </g>
      <g id="Group_228" data-name="Group 228">
        <path id="Path_4110" data-name="Path 4110" d="M75.163,278.644a1.238,1.238,0,0,0-1.193,1.64,1.132,1.132,0,0,0,1.121.878,1.249,1.249,0,0,0,1.333-1.255A1.222,1.222,0,0,0,75.163,278.644Z" fill="#fff"/>
        <path id="Path_4111" data-name="Path 4111" d="M75.177,281.209l-.089,0a1.174,1.174,0,0,1-1.161-.912,1.441,1.441,0,0,1,.228-1.234,1.255,1.255,0,0,1,1.008-.46h.006a1.336,1.336,0,0,1,.971.412,1.188,1.188,0,0,1,.329.9,1.456,1.456,0,0,1-.419.958A1.244,1.244,0,0,1,75.177,281.209Zm-.014-2.521a1.169,1.169,0,0,0-.939.427,1.359,1.359,0,0,0-.211,1.159,1.094,1.094,0,0,0,1.081.844A1.2,1.2,0,0,0,76.38,279.9a1.1,1.1,0,0,0-.305-.831,1.243,1.243,0,0,0-.906-.385Zm0-.044Z" fill="#ed3e88"/>
      </g>
      <g id="Group_229" data-name="Group 229">
        <path id="Path_4112" data-name="Path 4112" d="M77.51,279.366c.762.874,1.506.923,2.344,1.71a2.311,2.311,0,0,0,.4-1.447,1.422,1.422,0,0,0-.839-1.186,2.036,2.036,0,0,0-.62-.109,3.433,3.433,0,0,1-.008-.778l-1.388-.011S77.493,279.059,77.51,279.366Z" fill="#ed3e88"/>
        <path id="Path_4113" data-name="Path 4113" d="M79.854,281.12a.045.045,0,0,1-.031-.012,5.249,5.249,0,0,0-1.09-.759,4.267,4.267,0,0,1-1.257-.954.045.045,0,0,1-.01-.027c-.017-.3-.115-1.805-.116-1.82a.042.042,0,0,1,.012-.034.046.046,0,0,1,.032-.013h0l1.388.011a.043.043,0,0,1,.032.014.045.045,0,0,1,.012.033,4.716,4.716,0,0,0-.01.732,2.026,2.026,0,0,1,.61.111,1.47,1.47,0,0,1,.867,1.222,2.371,2.371,0,0,1-.4,1.476.046.046,0,0,1-.032.02Zm-2.3-1.772a4.2,4.2,0,0,0,1.223.924,5.367,5.367,0,0,1,1.068.735,2.247,2.247,0,0,0,.361-1.374,1.383,1.383,0,0,0-.811-1.149,2,2,0,0,0-.607-.106.049.049,0,0,1-.036-.018,2.379,2.379,0,0,1-.016-.76l-1.294-.011C77.458,277.844,77.536,279.047,77.553,279.348Z" fill="#ed3e88"/>
      </g>
      <g id="Group_230" data-name="Group 230">
        <path id="Path_4114" data-name="Path 4114" d="M78.637,278.664a1.239,1.239,0,0,0-1.193,1.64,1.133,1.133,0,0,0,1.121.878,1.251,1.251,0,0,0,1.334-1.255A1.222,1.222,0,0,0,78.637,278.664Z" fill="#fff"/>
        <path id="Path_4115" data-name="Path 4115" d="M78.651,281.228c-.029,0-.059,0-.088,0a1.175,1.175,0,0,1-1.162-.912,1.449,1.449,0,0,1,.228-1.235,1.26,1.26,0,0,1,1.008-.46h.006a1.336,1.336,0,0,1,.971.413,1.187,1.187,0,0,1,.329.9,1.449,1.449,0,0,1-.419.957A1.239,1.239,0,0,1,78.651,281.228Zm-.013-2.52a1.173,1.173,0,0,0-.94.426,1.361,1.361,0,0,0-.211,1.16,1.092,1.092,0,0,0,1.081.843,1.2,1.2,0,0,0,1.286-1.213,1.1,1.1,0,0,0-.3-.831,1.251,1.251,0,0,0-.912-.385Zm0-.044h0Z" fill="#ed3e88"/>
      </g>
      <g id="Group_231" data-name="Group 231">
        <rect id="Rectangle_129" data-name="Rectangle 129" width="6.21" height="0.523" transform="translate(73.803 277.541) rotate(-0.254)" fill="#fff"/>
        <path id="Path_4116" data-name="Path 4116" d="M73.805,278.108a.044.044,0,0,1-.044-.044l0-.523a.044.044,0,0,1,.044-.044l6.21-.028h0a.044.044,0,0,1,.044.044l0,.523a.045.045,0,0,1-.044.045l-6.21.027Zm.042-.523,0,.435,6.121-.027,0-.435Z" fill="#ed3e88"/>
      </g>
      <g id="Group_232" data-name="Group 232">
        <rect id="Rectangle_130" data-name="Rectangle 130" width="0.603" height="1.528" transform="translate(76.604 277.026) rotate(-0.254)" fill="#ed3e88"/>
        <path id="Path_4117" data-name="Path 4117" d="M76.61,278.6a.044.044,0,0,1-.044-.045l-.007-1.528a.044.044,0,0,1,.044-.044l.6,0a.049.049,0,0,1,.031.013.046.046,0,0,1,.013.031l.007,1.528a.045.045,0,0,1-.044.045l-.6,0Zm.038-1.529.006,1.44.515,0-.006-1.44Z" fill="#ed3e88"/>
      </g>
      <g id="Group_233" data-name="Group 233">
        <path id="Path_4118" data-name="Path 4118" d="M75.105,279.024a.014.014,0,0,1-.014-.014l-.019-.334a.015.015,0,0,1,.014-.015.015.015,0,0,1,.016.014l.018.333a.015.015,0,0,1-.014.016Z" fill="#ed3e88"/>
      </g>
      <g id="Group_234" data-name="Group 234">
        <path id="Path_4119" data-name="Path 4119" d="M74.171,279.871h0l-.212-.007a.015.015,0,0,1,0-.029l.212.006a.015.015,0,0,1,.014.015A.015.015,0,0,1,74.171,279.871Z" fill="#ed3e88"/>
      </g>
      <g id="Group_235" data-name="Group 235">
        <path id="Path_4120" data-name="Path 4120" d="M76.417,279.857h0a1.106,1.106,0,0,0-.3,0,.015.015,0,0,1-.016-.013.015.015,0,0,1,.012-.017,1.124,1.124,0,0,1,.312.005.014.014,0,0,1,.013.017A.015.015,0,0,1,76.417,279.857Z" fill="#ed3e88"/>
      </g>
      <g id="Group_238" data-name="Group 238">
        <g id="Group_236" data-name="Group 236">
          <path id="Path_4121" data-name="Path 4121" d="M74.722,279.969a.044.044,0,0,1,0-.088c.255-.01.514-.012.769,0a.044.044,0,0,1,.043.045.043.043,0,0,1-.046.043c-.253-.008-.509-.007-.763,0Z" fill="#ed3e88"/>
        </g>
        <g id="Group_237" data-name="Group 237">
          <path id="Path_4122" data-name="Path 4122" d="M75.114,280.35a.044.044,0,0,1-.044-.044v-.121c0-.206,0-.462-.009-.647a.045.045,0,0,1,.042-.047.046.046,0,0,1,.047.042c.009.188.009.445.008.652v.121a.043.043,0,0,1-.044.044Z" fill="#ed3e88"/>
        </g>
      </g>
      <g id="Group_240" data-name="Group 240">
        <g id="Group_239" data-name="Group 239">
          <path id="Path_4123" data-name="Path 4123" d="M78.223,279.931a.045.045,0,0,1,0-.089c.255-.01.513-.011.769,0a.045.045,0,0,1,0,.089h0c-.253-.008-.51-.007-.763,0Z" fill="#ed3e88"/>
        </g>
      </g>
      <g id="Group_241" data-name="Group 241">
        <path id="Path_4124" data-name="Path 4124" d="M74.389,279.307a.016.016,0,0,1-.011-.005l-.16-.18a.014.014,0,0,1,0-.021.015.015,0,0,1,.021,0l.16.18a.015.015,0,0,1,0,.021Z" fill="#ed3e88"/>
      </g>
      <g id="Group_242" data-name="Group 242">
        <path id="Path_4125" data-name="Path 4125" d="M75.82,279.158l-.009,0a.014.014,0,0,1,0-.021l.147-.18a.014.014,0,0,1,.02,0,.014.014,0,0,1,0,.021l-.147.18A.016.016,0,0,1,75.82,279.158Z" fill="#ed3e88"/>
      </g>
      <g id="Group_243" data-name="Group 243">
        <path id="Path_4126" data-name="Path 4126" d="M78.567,279.05a.015.015,0,0,1-.015-.014l-.018-.333a.014.014,0,0,1,.014-.016.014.014,0,0,1,.015.014l.019.334a.015.015,0,0,1-.014.015Z" fill="#ed3e88"/>
      </g>
      <g id="Group_244" data-name="Group 244">
        <path id="Path_4127" data-name="Path 4127" d="M77.633,279.9h0l-.211-.006a.016.016,0,0,1-.015-.016.017.017,0,0,1,.015-.014l.212.006a.015.015,0,0,1,.014.016A.014.014,0,0,1,77.633,279.9Z" fill="#ed3e88"/>
      </g>
      <g id="Group_245" data-name="Group 245">
        <path id="Path_4128" data-name="Path 4128" d="M79.879,279.883h0a1.105,1.105,0,0,0-.3,0,.015.015,0,0,1-.016-.013.015.015,0,0,1,.013-.016,1.124,1.124,0,0,1,.312,0,.015.015,0,0,1,.012.017A.014.014,0,0,1,79.879,279.883Z" fill="#ed3e88"/>
      </g>
      <g id="Group_246" data-name="Group 246">
        <path id="Path_4129" data-name="Path 4129" d="M77.85,279.333a.016.016,0,0,1-.011-.005l-.16-.18a.015.015,0,0,1,.022-.02l.16.18a.014.014,0,0,1,0,.021Z" fill="#ed3e88"/>
      </g>
      <g id="Group_247" data-name="Group 247">
        <path id="Path_4130" data-name="Path 4130" d="M79.281,279.184l-.009,0a.015.015,0,0,1,0-.021l.147-.18a.015.015,0,1,1,.023.019l-.147.18A.013.013,0,0,1,79.281,279.184Z" fill="#ed3e88"/>
      </g>
      <g id="Group_248" data-name="Group 248">
        <path id="Path_4131" data-name="Path 4131" d="M74.942,277.578a.044.044,0,0,1-.044-.043c-.016-.415-.023-.836-.021-1.252a.044.044,0,0,1,.044-.044h0a.045.045,0,0,1,.044.045c0,.414.006.834.021,1.248a.044.044,0,0,1-.042.046Z" fill="#ed3e88"/>
      </g>
      <g id="Group_249" data-name="Group 249">
        <path id="Path_4132" data-name="Path 4132" d="M79.1,277.556a.044.044,0,0,1-.044-.042c-.022-.412-.031-.83-.027-1.242a.044.044,0,0,1,.088,0c0,.41.005.826.027,1.236a.044.044,0,0,1-.041.047Z" fill="#ed3e88"/>
      </g>
    </g>
  </g>
</svg>
