<svg xmlns="http://www.w3.org/2000/svg" width="8.608" height="3.549" viewBox="0 0 8.608 3.549">
  <g id="Group_224" data-name="Group 224" transform="translate(-110.692 -276.954)">
    <g id="Group_223" data-name="Group 223">
      <path id="Path_4101" data-name="Path 4101" d="M115.909,278.938a1.307,1.307,0,0,1,.212-.9,1.346,1.346,0,0,1,.731-.532.121.121,0,0,1-.031.078c-.066.1-.134.2-.2.3-.108.168-.215.337-.324.505s-.217.327-.327.491a.489.489,0,0,1-.047.055Z" fill="#ed3e88"/>
      <path id="Path_4102" data-name="Path 4102" d="M117.265,277.469c-.016.029-.025.048-.036.066l-.243.372q-.141.214-.28.431c-.1.157-.2.314-.306.472s-.191.293-.286.44a.2.2,0,0,1-.063.07.134.134,0,0,1-.028-.169l.672-1.033c.127-.2.256-.391.382-.588a.114.114,0,0,1,.111-.061C117.209,277.471,117.231,277.469,117.265,277.469Z" fill="#ed3e88"/>
      <path id="Path_4103" data-name="Path 4103" d="M112.477,277.513a.09.09,0,0,1-.017.084c-.034.054-.069.108-.1.162l-.754,1.157a.277.277,0,0,1-.027.033,1.253,1.253,0,0,1,.093-.731A1.346,1.346,0,0,1,112.477,277.513Z" fill="#ed3e88"/>
      <path id="Path_4104" data-name="Path 4104" d="M111.7,279.328a.309.309,0,0,1-.058-.12c0-.01.006-.027.014-.038q.183-.284.367-.567l.306-.471c.131-.2.262-.4.392-.608a.136.136,0,0,1,.114-.06c.039,0,.054.017.041.054a.154.154,0,0,1-.02.038c-.144.223-.288.447-.433.67-.124.191-.251.381-.376.573l-.309.476C111.73,279.292,111.717,279.309,111.7,279.328Z" fill="#ed3e88"/>
      <path id="Path_4105" data-name="Path 4105" d="M119.291,278.1a.1.1,0,0,0-.1-.112.78.78,0,0,1-.094-.028.618.618,0,0,1-.284-.18,2.748,2.748,0,0,0-.626-.51,1.93,1.93,0,0,0-1.217-.3,1.751,1.751,0,0,0-.589.166,2.485,2.485,0,0,0-.431.287,2.9,2.9,0,0,0-.437.421.437.437,0,0,1-.289.165,1.7,1.7,0,0,1-.445,0,.406.406,0,0,1-.279-.149,1.334,1.334,0,0,0-.1-.1,4.629,4.629,0,0,0-.47-.426,1.8,1.8,0,0,0-1.019-.375,1.837,1.837,0,0,0-.664.1,2.362,2.362,0,0,0-.357.156,2.79,2.79,0,0,0-.665.512.845.845,0,0,1-.438.263c-.072.017-.084.033-.089.107s-.008.156-.01.234a.633.633,0,0,0,.006.074.1.1,0,0,0,.076.094c.022.006.043.018.065.026a.111.111,0,0,1,.072.074c.013.043.029.085.04.127.048.173.089.348.142.519a1.773,1.773,0,0,0,.5.777,1.792,1.792,0,0,0,.886.44,1.534,1.534,0,0,0,.411.041,2.066,2.066,0,0,0,.644-.146,1.759,1.759,0,0,0,.845-.71,2.82,2.82,0,0,0,.316-.811c.027-.1.058-.205.09-.307a.191.191,0,0,1,.061-.1.236.236,0,0,1,.362.081c.01.025.02.05.028.075.033.117.067.233.1.349a2.79,2.79,0,0,0,.216.584,1.73,1.73,0,0,0,.568.648,1.807,1.807,0,0,0,1.338.308,1.88,1.88,0,0,0,.805-.331,1.74,1.74,0,0,0,.662-.963c.044-.159.088-.318.125-.479a.242.242,0,0,1,.181-.209c.047-.013.061-.048.067-.093A2.044,2.044,0,0,0,119.291,278.1Zm-8.328.3h-.07a.05.05,0,1,1,0-.1h.07a.05.05,0,0,1,0,.1Zm0-.19h-.07a.05.05,0,1,1,0-.1h.07a.05.05,0,0,1,0,.1Zm1.881,2.047a1.526,1.526,0,1,1,1.541-1.518A1.527,1.527,0,0,1,112.844,280.25Zm4.334,0a1.528,1.528,0,0,1-1.571-1.513,1.564,1.564,0,1,1,1.571,1.513Zm1.917-1.857h-.07a.05.05,0,1,1,0-.1h.07a.05.05,0,0,1,0,.1Zm0-.19h-.07a.05.05,0,1,1,0-.1h.07a.05.05,0,0,1,0,.1Z" fill="#ed3e88"/>
    </g>
  </g>
</svg>
