<svg xmlns="http://www.w3.org/2000/svg" width="3.409" height="6" viewBox="0 0 3.409 6">
  <g id="Group_219" data-name="Group 219" transform="translate(-151.527 -275.728)">
    <g id="Group_218" data-name="Group 218">
      <g id="Group_217" data-name="Group 217">
        <g id="Group_192" data-name="Group 192">
          <g id="Group_191" data-name="Group 191">
            <g id="Group_190" data-name="Group 190">
              <g id="Group_189" data-name="Group 189">
                <g id="Group_188" data-name="Group 188">
                  <g id="Group_187" data-name="Group 187">
                    <path id="Path_4093" data-name="Path 4093" d="M154.149,281.728h-1.835a.788.788,0,0,1-.787-.786V279.23a1.7,1.7,0,0,1,1.032-1.567.117.117,0,0,1,.071-.007h1.207a.119.119,0,0,1,.067.007,1.708,1.708,0,0,1,1.032,1.567v1.712A.788.788,0,0,1,154.149,281.728Zm-1.526-3.839a1.473,1.473,0,0,0-.863,1.341v1.712a.554.554,0,0,0,.554.553h1.835a.554.554,0,0,0,.554-.553V279.23a1.475,1.475,0,0,0-.863-1.341Z" fill="#ed3e88"/>
                  </g>
                </g>
              </g>
            </g>
          </g>
        </g>
        <g id="Group_198" data-name="Group 198">
          <g id="Group_197" data-name="Group 197">
            <g id="Group_196" data-name="Group 196">
              <g id="Group_195" data-name="Group 195">
                <g id="Group_194" data-name="Group 194">
                  <g id="Group_193" data-name="Group 193">
                    <path id="Path_4094" data-name="Path 4094" d="M153.858,277.889H152.6a.116.116,0,0,1-.117-.116v-.585a.116.116,0,0,1,.117-.116h1.253a.116.116,0,0,1,.117.116v.585A.116.116,0,0,1,153.858,277.889Zm-1.137-.233h1.021V277.3h-1.021Z" fill="#ed3e88"/>
                  </g>
                </g>
              </g>
            </g>
          </g>
        </g>
        <g id="Group_205" data-name="Group 205">
          <g id="Group_204" data-name="Group 204">
            <g id="Group_203" data-name="Group 203">
              <g id="Group_202" data-name="Group 202">
                <g id="Group_201" data-name="Group 201">
                  <g id="Group_200" data-name="Group 200">
                    <g id="Group_199" data-name="Group 199">
                      <path id="Path_4095" data-name="Path 4095" d="M153.858,277.3H152.6a.117.117,0,0,1-.117-.117.651.651,0,0,0-.085-.322l-.242-.425a.338.338,0,0,1,.039-.394.407.407,0,0,1,.518-.03.247.247,0,0,0,.071.03.4.4,0,0,0,.029-.052.419.419,0,0,1,.414-.267.412.412,0,0,1,.407.269.586.586,0,0,0,.028.052.242.242,0,0,0,.079-.032.407.407,0,0,1,.517.03.338.338,0,0,1,.039.394l-.242.425a.651.651,0,0,0-.085.322A.117.117,0,0,1,153.858,277.3Zm-1.144-.233h1.035a.891.891,0,0,1,.108-.321l.242-.425a.1.1,0,0,0-.005-.119c-.049-.052-.13-.043-.237.015a.412.412,0,0,1-.2.061.261.261,0,0,1-.231-.183c-.042-.086-.068-.138-.2-.138s-.163.056-.207.14a.26.26,0,0,1-.23.179.4.4,0,0,1-.189-.059c-.107-.059-.187-.067-.236-.015a.1.1,0,0,0-.006.119l.242.425A.891.891,0,0,1,152.714,277.072Z" fill="#ed3e88"/>
                    </g>
                  </g>
                </g>
              </g>
            </g>
          </g>
        </g>
        <g id="Group_216" data-name="Group 216">
          <g id="Group_209" data-name="Group 209">
            <g id="Group_208" data-name="Group 208">
              <g id="Group_207" data-name="Group 207">
                <g id="Group_206" data-name="Group 206">
                  <path id="Path_4096" data-name="Path 4096" d="M153.858,280.2a.491.491,0,0,1-.136.361.506.506,0,0,1-.261.144l-.056.011v.219h-.347v-.227a.589.589,0,0,1-.176-.069.542.542,0,0,1-.194-.2.663.663,0,0,1-.083-.286l.361-.021a.4.4,0,0,0,.116.256.218.218,0,0,0,.157.057.244.244,0,0,0,.2-.1.21.21,0,0,0,.038-.134.343.343,0,0,0-.142-.25l-.337-.257a1.25,1.25,0,0,1-.267-.263.516.516,0,0,1-.084-.285.463.463,0,0,1,.23-.418.589.589,0,0,1,.183-.069v-.232h.347v.232a.629.629,0,0,1,.17.056.475.475,0,0,1,.182.159.494.494,0,0,1,.083.233l-.363.054a.317.317,0,0,0-.088-.194.211.211,0,0,0-.15-.05.185.185,0,0,0-.159.074.246.246,0,0,0-.044.149.405.405,0,0,0,.148.282,1.151,1.151,0,0,0,.169.129c.088.059.146.1.175.125a1.114,1.114,0,0,1,.216.222.817.817,0,0,1,.058.1A.456.456,0,0,1,153.858,280.2Z" fill="#ed3e88"/>
                </g>
              </g>
            </g>
          </g>
          <g id="Group_215" data-name="Group 215">
            <g id="Group_214" data-name="Group 214">
              <g id="Group_213" data-name="Group 213">
                <g id="Group_212" data-name="Group 212">
                  <g id="Group_211" data-name="Group 211">
                    <g id="Group_210" data-name="Group 210">
                      <path id="Path_4097" data-name="Path 4097" d="M153.4,281.037h-.347a.1.1,0,0,1-.1-.1v-.153a.671.671,0,0,1-.13-.06.632.632,0,0,1-.227-.232.774.774,0,0,1-.1-.328.1.1,0,0,1,.024-.071.092.092,0,0,1,.067-.033l.361-.021a.1.1,0,0,1,.1.084.309.309,0,0,0,.084.2.119.119,0,0,0,.084.033.156.156,0,0,0,.131-.061.132.132,0,0,0,.017-.075.261.261,0,0,0-.109-.177l-.244-.185-.088-.068a1.342,1.342,0,0,1-.289-.286.618.618,0,0,1-.1-.339.554.554,0,0,1,.276-.5.654.654,0,0,1,.137-.062v-.157a.1.1,0,0,1,.1-.1h.347a.1.1,0,0,1,.1.1v.156a.66.66,0,0,1,.117.046.561.561,0,0,1,.217.19.6.6,0,0,1,.1.278.1.1,0,0,1-.083.106l-.363.054a.1.1,0,0,1-.072-.019.1.1,0,0,1-.038-.065.226.226,0,0,0-.059-.136.126.126,0,0,0-.083-.023.085.085,0,0,0-.08.034.148.148,0,0,0-.026.092.322.322,0,0,0,.119.213,1.072,1.072,0,0,0,.154.117c.1.064.153.1.184.131a1.251,1.251,0,0,1,.234.241,1.108,1.108,0,0,1,.065.108.553.553,0,0,1,.066.235.591.591,0,0,1-.162.43.6.6,0,0,1-.29.167v.14A.1.1,0,0,1,153.4,281.037Zm-.25-.195h.153v-.121a.1.1,0,0,1,.085-.1c.016,0,.03-.006.045-.009a.412.412,0,0,0,.212-.115.4.4,0,0,0,.111-.294.368.368,0,0,0-.046-.152.671.671,0,0,0-.051-.083,1,1,0,0,0-.2-.2c-.027-.022-.083-.062-.168-.119a1.351,1.351,0,0,1-.183-.14.5.5,0,0,1-.177-.352.339.339,0,0,1,.063-.207.28.28,0,0,1,.237-.113.3.3,0,0,1,.217.077.384.384,0,0,1,.1.155l.173-.026a.425.425,0,0,0-.048-.1.375.375,0,0,0-.145-.126.561.561,0,0,0-.145-.048.1.1,0,0,1-.079-.1v-.135h-.153v.135a.1.1,0,0,1-.078.1.47.47,0,0,0-.152.057.365.365,0,0,0-.183.334.418.418,0,0,0,.069.233,1.183,1.183,0,0,0,.245.239l.087.066.249.19a.444.444,0,0,1,.181.327.3.3,0,0,1-.06.2.346.346,0,0,1-.272.135h-.011a.311.311,0,0,1-.212-.081.435.435,0,0,1-.131-.227l-.171.01a.54.54,0,0,0,.056.147.444.444,0,0,0,.159.163.5.5,0,0,0,.147.057.1.1,0,0,1,.077.1Z" fill="#ed3e88"/>
                    </g>
                  </g>
                </g>
              </g>
            </g>
          </g>
        </g>
      </g>
    </g>
  </g>
</svg>
