<svg xmlns="http://www.w3.org/2000/svg" width="4.347" height="5" viewBox="0 0 4.347 5">
  <g id="Group_222" data-name="Group 222" transform="translate(-36.595 -276.228)">
    <g id="Group_221" data-name="Group 221">
      <g id="Group_220" data-name="Group 220">
        <path id="Path_4098" data-name="Path 4098" d="M36.61,278.391c-.027-.37-.008-.74-.015-1.11,0-.06.038-.054.074-.057a3.312,3.312,0,0,0,1.041-.252,2.745,2.745,0,0,0,.992-.7c.048-.053.076-.067.131,0a2.712,2.712,0,0,0,.88.65.172.172,0,0,1,.1.233.17.17,0,0,1-.248.076,3.1,3.1,0,0,1-.753-.492c-.034-.031-.054-.037-.092,0a3.351,3.351,0,0,1-1.7.789c-.073.012-.092.037-.092.11a7.509,7.509,0,0,0,.053,1.091,2.692,2.692,0,0,0,.839,1.688,2.075,2.075,0,0,0,.882.464.41.41,0,0,0,.228-.031,2.212,2.212,0,0,0,1.437-1.412,3.828,3.828,0,0,0,.228-1.311c0-.028,0-.057,0-.086a.172.172,0,1,1,.341,0,4.33,4.33,0,0,1-.225,1.451,2.693,2.693,0,0,1-.919,1.3,2.416,2.416,0,0,1-.928.432.727.727,0,0,1-.406-.057,2.546,2.546,0,0,1-1.6-1.564,3.633,3.633,0,0,1-.247-1.165l.021-.005c0-.1,0-.2,0-.307C36.609,278.209,36.637,278.3,36.61,278.391Z" fill="#ed3e88"/>
        <path id="Path_4099" data-name="Path 4099" d="M37.682,278.445c.048-.02.083.011.12.041.167.133.341.258.516.381a.086.086,0,0,0,.126-.006,21.486,21.486,0,0,0,2.01-1.912c.03-.032.059-.064.089-.1.083-.085.15-.1.219-.046s.07.127,0,.223c-.153.221-.3.444-.459.663a13.434,13.434,0,0,1-1.63,1.956.288.288,0,0,1-.49-.033c-.224-.291-.43-.594-.625-.9l-.023-.037A.149.149,0,0,1,37.682,278.445Z" fill="#ed3e88"/>
        <path id="Path_4100" data-name="Path 4100" d="M36.61,278.391c.027-.089,0-.182.027-.272,0,.1,0,.205,0,.307l-.021.005Z" fill="#ed3e88"/>
      </g>
    </g>
  </g>
</svg>
